HIERARCHY
ROOT Hips
{
	OFFSET 0.000000 0.000000 0.000000 
	CHANNELS 6 Xposition Yposition Zposition Zrotation Yrotation Xrotation
	JOINT LeftUpLeg
	{
		OFFSET 1.363060 -1.794630 0.839290 
		CHANNELS 3 Zrotation Yrotation Xrotation
		JOINT LeftLeg
		{
			OFFSET 2.448110 -6.726130 0.000000 
			CHANNELS 3 Zrotation Yrotation Xrotation
			JOINT LeftFoot
			{
				OFFSET 2.562200 -7.039590 0.000000 
				CHANNELS 3 Zrotation Yrotation Xrotation
				JOINT LeftToeBase
				{
					OFFSET 0.157640 -0.433110 2.322550 
					CHANNELS 3 Zrotation Yrotation Xrotation
					End Site
					{
						OFFSET 0.000000 0.000000 0.000000 
					}
				}
			}
		}
	}
	JOINT RightUpLeg
	{
		OFFSET -1.305520 -1.794630 0.839290 
		CHANNELS 3 Zrotation Yrotation Xrotation
		JOINT RightLeg
		{
			OFFSET -2.542530 -6.985550 0.000000 
			CHANNELS 3 Zrotation Yrotation Xrotation
			JOINT RightFoot
			{
				OFFSET -2.568260 -7.056230 0.000000 
				CHANNELS 3 Zrotation Yrotation Xrotation
				JOINT RightToeBase
				{
					OFFSET -0.164730 -0.452590 2.363150 
					CHANNELS 3 Zrotation Yrotation Xrotation
					End Site
					{
						OFFSET 0.000000 0.000000 0.000000 
					}
				}
			}
		}
	}
	JOINT Spine
	{
		OFFSET 0.028270 2.035590 -0.193380 
		CHANNELS 3 Zrotation Yrotation Xrotation
		JOINT Spine1
		{
			OFFSET 0.056720 2.048850 -0.042750 
			CHANNELS 3 Zrotation Yrotation Xrotation
			JOINT Neck1
			{
				OFFSET -0.054170 1.746240 0.172020 
				CHANNELS 3 Zrotation Yrotation Xrotation
				JOINT Head
				{
					OFFSET 0.104070 1.761360 -0.123970 
					CHANNELS 3 Zrotation Yrotation Xrotation
					End Site
					{
						OFFSET 0.000000 0.000000 0.000000 
					}
				}
			}
			JOINT LeftArm
			{
				OFFSET 3.362410 1.200890 -0.311210 
				CHANNELS 3 Zrotation Yrotation Xrotation
				JOINT LeftForeArm
				{
					OFFSET 4.983000 -0.000000 -0.000000 
					CHANNELS 3 Zrotation Yrotation Xrotation
					JOINT LeftHand
					{
						OFFSET 3.483560 -0.000000 -0.000000 
						CHANNELS 3 Zrotation Yrotation Xrotation
						JOINT LeftHandIndex1
						{
							OFFSET 0.715260 -0.000000 -0.000000 
							CHANNELS 3 Zrotation Yrotation Xrotation
							End Site
							{
								OFFSET 0.000000 0.000000 0.000000 
							}
						}
					}
				}
			}
			JOINT RightArm
			{
				OFFSET -3.136600 1.374050 -0.404650 
				CHANNELS 3 Zrotation Yrotation Xrotation
				JOINT RightForeArm
				{
					OFFSET -5.241900 -0.000000 -0.000000 
					CHANNELS 3 Zrotation Yrotation Xrotation
					JOINT RightHand
					{
						OFFSET -3.444170 -0.000000 -0.000000 
						CHANNELS 3 Zrotation Yrotation Xrotation
						JOINT RightHandIndex1
						{
							OFFSET -0.622530 -0.000000 -0.000000 
							CHANNELS 3 Zrotation Yrotation Xrotation
							End Site
							{
								OFFSET 0.000000 0.000000 0.000000 
							}
						}
					}
				}
			}
		}
	}
}
MOTION
Frames: 15
Frame Time: 0.041667
-5.651301 18.350370 12.525305 172.721904 73.533265 -172.672969 -1.084679 -8.504377 -30.320970 -1.102376 5.320949 15.233129 -3.769868 12.789904 4.618018 1.933200 -8.725600 -24.940600 4.051763 10.908623 -17.752661 1.000294 -5.893176 20.250746 -1.407923 7.244139 18.387103 -6.381700 -14.788300 46.495200 4.985294 2.101529 1.054739 0.532584 1.635975 4.437395 -11.497884 10.039750 22.903041 -1.372400 3.618000 9.763300 -73.839053 1.302579 62.201536 92.652005 -61.519992 -67.806768 1.617816 1.483711 -40.589883 -7.125000 0.000000 0.000000 75.286148 -0.481846 37.338685 -57.868807 53.188572 -37.577861 -0.912017 1.953627 -56.702408 7.125000 0.000000 0.000000 
-5.582292 18.351164 12.501871 172.809692 73.834711 -172.653322 -0.637763 -9.039408 -30.124988 -1.162837 5.123277 14.642830 -3.884534 13.069205 4.593026 1.937500 -8.734700 -24.969000 4.064225 10.913411 -17.452350 1.047480 -5.807430 20.002246 -1.411396 7.139393 18.577161 -6.381400 -14.788000 46.493900 5.057644 2.048564 1.131136 0.627422 1.617873 4.382861 -11.448203 9.977541 23.052300 -1.348100 3.578600 9.809900 -73.689855 1.184875 62.272470 93.331349 -61.598817 -68.382548 1.613295 1.488193 -40.967268 -7.125000 0.000000 0.000000 75.422148 -0.518322 36.362426 -57.622214 53.129563 -37.333968 -0.895347 1.948851 -57.556171 7.125000 0.000000 0.000000 
-5.514276 18.352058 12.474963 172.931200 74.155824 -172.566595 -0.179140 -9.612188 -29.959788 -1.205250 4.958945 14.161434 -4.002747 13.335594 4.434316 1.890500 -8.634100 -24.657400 4.075272 10.880834 -17.210034 1.091851 -5.727877 19.764954 -1.413286 6.996977 18.824816 -6.387500 -14.793600 46.517700 5.081791 2.020614 1.174287 0.676423 1.609228 4.340918 -11.410141 9.903610 23.158927 -1.336800 3.538300 9.840800 -73.514117 1.070942 62.317829 94.109949 -61.674097 -69.054078 1.604765 1.490535 -41.531315 -7.125000 0.000000 0.000000 75.564030 -0.576699 35.317288 -57.426328 53.089792 -37.144049 -0.877420 1.942455 -58.494141 7.125000 0.000000 0.000000 
-5.447153 18.352753 12.444579 173.067538 74.495000 -172.405217 0.284138 -10.192623 -29.810571 -1.243380 4.793400 13.682630 -4.155594 13.672279 4.190823 1.811500 -8.462000 -24.126300 4.076809 10.805627 -17.041982 1.135237 -5.651015 19.525700 -1.413927 6.801420 19.131172 -6.395900 -14.801300 46.550700 5.066156 2.008670 1.178344 0.681009 1.604515 4.320016 -11.343380 9.816453 23.274143 -1.322800 3.496300 9.870900 -73.329660 0.951497 62.333630 94.941283 -61.736711 -69.789002 1.588959 1.488377 -42.241156 -7.125000 0.000000 0.000000 75.686391 -0.653363 34.246993 -57.311527 53.079157 -37.034670 -0.859524 1.934282 -59.491382 7.125000 0.000000 0.000000 
-5.378938 18.352256 12.412606 173.164779 74.844499 -172.253881 0.706362 -10.723792 -29.692450 -1.274432 4.646542 13.258231 -4.315908 14.020551 3.899829 1.729200 -8.277700 -23.560800 4.058563 10.743627 -16.895292 1.174189 -5.580264 19.303406 -1.416191 6.608725 19.444160 -6.405000 -14.809700 46.586500 5.022346 1.996838 1.176930 0.675753 1.597168 4.327674 -11.240768 9.720026 23.422074 -1.300500 3.452600 9.911300 -73.144402 0.811303 62.319528 95.762037 -61.779843 -70.533708 1.560288 1.481671 -43.055247 -7.125000 0.000000 0.000000 75.779144 -0.738620 33.200194 -57.277374 53.095648 -36.999870 -0.839491 1.927031 -60.488386 7.125000 0.000000 0.000000 
-5.308142 18.349575 12.380534 173.213475 75.208174 -172.150643 1.057078 -11.135369 -29.599137 -1.302823 4.517903 12.876474 -4.464807 14.347216 3.638687 1.657600 -8.113300 -23.058600 4.020106 10.744370 -16.722132 1.207760 -5.516759 19.107293 -1.419778 6.450131 19.719951 -6.416700 -14.820300 46.632000 4.958934 1.981573 1.188114 0.684472 1.586626 4.363961 -11.139762 9.617187 23.584079 -1.281400 3.405700 9.959200 -72.954838 0.649379 62.291949 96.534582 -61.803881 -71.247924 1.517296 1.471617 -43.945939 -7.125000 0.000000 0.000000 75.843685 -0.833623 32.199047 -57.318973 53.135882 -37.031082 -0.814883 1.923315 -61.430143 7.125000 0.000000 0.000000 
-5.234665 18.344511 12.348661 173.249406 75.589843 -172.071379 1.327958 -11.387103 -29.530128 -1.330123 4.408118 12.531680 -4.591382 14.634242 3.458212 1.604700 -7.989000 -22.680600 3.973523 10.814082 -16.508594 1.236175 -5.461024 18.940415 -1.423269 6.328401 19.952521 -6.430400 -14.832800 46.685400 4.897192 1.961524 1.206515 0.714232 1.573577 4.413752 -11.060756 9.519104 23.747811 -1.270200 3.359900 10.008900 -72.770124 0.481402 62.259213 97.256578 -61.814523 -71.917508 1.464680 1.459344 -44.895882 -7.125000 0.000000 0.000000 75.871546 -0.947943 31.247854 -57.439956 53.201329 -37.132213 -0.784729 1.923495 -62.293860 7.125000 0.000000 0.000000 
-5.159400 18.337164 12.316490 173.311555 75.984908 -171.980314 1.522331 -11.471378 -29.490599 -1.355275 4.320036 12.228394 -4.698114 14.890463 3.381591 1.580300 -7.931000 -22.504600 3.932222 10.928337 -16.263678 1.260736 -5.411973 18.798676 -1.426064 6.236768 20.159261 -6.443700 -14.845000 46.737700 4.859496 1.932949 1.225884 0.760231 1.557034 4.461650 -10.964780 9.434538 23.906829 -1.251600 3.322300 10.054400 -72.609638 0.313908 62.217306 97.936830 -61.816474 -72.544506 1.408497 1.445041 -45.873929 -7.125000 0.000000 0.000000 75.850740 -1.072709 30.335868 -57.652574 53.297201 -37.317192 -0.752383 1.924951 -63.103705 7.125000 0.000000 0.000000 
-5.084235 18.328823 12.283326 173.406820 76.397350 -171.860265 1.650055 -11.408910 -29.489451 -1.375921 4.256719 11.978061 -4.791961 15.130134 3.390688 1.580600 -7.931600 -22.506400 3.895774 11.062343 -16.009818 1.282812 -5.366966 18.672732 -1.429408 6.166724 20.366318 -6.455600 -14.855700 46.783800 4.854022 1.895144 1.244338 0.806636 1.537277 4.501813 -10.800675 9.360956 24.046512 -1.206700 3.295300 10.089400 -72.495398 0.146413 62.151055 98.586236 -61.811773 -73.140139 1.350200 1.428813 -46.806758 -7.125000 0.000000 0.000000 75.773377 -1.177161 29.450929 -57.956387 53.423693 -37.588462 -0.724606 1.923405 -63.901387 7.125000 0.000000 0.000000 
-5.009963 18.321376 12.248176 173.513909 76.835256 -171.715714 1.726327 -11.244193 -29.527964 -1.390472 4.219262 11.790891 -4.879262 15.360838 3.433255 1.590200 -7.954400 -22.575700 3.851116 11.216046 -15.764532 1.303041 -5.324175 18.555585 -1.435314 6.117729 20.583068 -6.465600 -14.864800 46.822800 4.874752 1.852556 1.256181 0.841141 1.516196 4.538737 -10.568686 9.298184 24.155956 -1.133500 3.277900 10.110900 -72.442163 -0.019523 62.046148 99.209220 -61.800611 -73.713337 1.285414 1.412511 -47.614528 -7.125000 0.000000 0.000000 75.643883 -1.244715 28.586355 -58.321438 53.569405 -37.915975 -0.704050 1.918123 -64.688065 7.125000 0.000000 0.000000 
-4.936486 18.315220 12.211139 173.605826 77.299731 -171.567201 1.766790 -11.027633 -29.595084 -1.398477 4.206297 11.671838 -4.962091 15.579636 3.462794 1.595800 -7.967800 -22.616400 3.787057 11.401846 -15.532088 1.321053 -5.284292 18.448277 -1.444482 6.092403 20.800738 -6.475500 -14.873800 46.861300 4.901957 1.813132 1.264551 0.865135 1.496685 4.587779 -10.319083 9.244342 24.220915 -1.049700 3.265700 10.118900 -72.438802 -0.191127 61.895623 99.780195 -61.781571 -74.249072 1.205207 1.399811 -48.253191 -7.125000 0.000000 0.000000 75.485429 -1.279600 27.718697 -58.723984 53.723927 -38.271138 -0.688271 1.912693 -65.427306 7.125000 0.000000 0.000000 
-4.863008 18.308964 12.172514 173.677409 77.785189 -171.425903 1.788610 -10.806634 -29.668606 -1.400188 4.214500 11.619144 -5.038239 15.775407 3.450249 1.587000 -7.946900 -22.553000 3.706126 11.608923 -15.313917 1.335769 -5.250851 18.358261 -1.455616 6.079034 21.017408 -6.487700 -14.884900 46.909000 4.909154 1.787050 1.270595 0.880197 1.482593 4.653949 -10.116375 9.184802 24.229583 -0.982800 3.248400 10.113500 -72.462498 -0.369872 61.696820 100.254185 -61.754166 -74.715940 1.098497 1.394845 -48.689089 -7.125000 0.000000 0.000000 75.333185 -1.304951 26.795450 -59.188720 53.894557 -38.676261 -0.674700 1.909326 -66.091694 7.125000 0.000000 0.000000 
-4.788935 18.300822 12.132300 173.760120 78.283903 -171.266744 1.808194 -10.612304 -29.732367 -1.396069 4.240525 11.625895 -5.108941 15.947990 3.385329 1.559500 -7.881000 -22.353200 3.621795 11.803899 -15.119716 1.346001 -5.228118 18.294689 -1.466591 6.056274 21.244581 -6.502100 -14.897900 46.965200 4.873675 1.783602 1.255080 0.877687 1.476746 4.722229 -9.991153 9.109700 24.202868 -0.949800 3.221900 10.097900 -72.488535 -0.530407 61.455449 100.614126 -61.722151 -75.095837 0.960680 1.399324 -48.916146 -7.125000 0.000000 0.000000 75.216147 -1.367169 25.770980 -59.776424 54.100797 -39.191002 -0.660283 1.909527 -66.685572 7.125000 0.000000 0.000000 
-4.714167 18.289900 12.090200 173.887172 78.795022 -171.059847 1.814513 -10.409503 -29.797337 -1.386425 4.282544 11.679731 -5.180963 16.123643 3.331018 1.529200 -7.807500 -22.130900 3.544436 11.965833 -14.955443 1.350890 -5.218400 18.263664 -1.476393 6.015469 21.492671 -6.516800 -14.911100 47.022200 4.805510 1.797822 1.212964 0.855841 1.477312 4.783712 -9.909176 9.029945 24.180016 -0.938700 3.193500 10.080200 -72.521722 -0.654589 61.178188 100.886787 -61.692430 -75.393557 0.807413 1.410338 -49.007191 -7.125000 0.000000 0.000000 75.125873 -1.476027 24.658164 -60.533337 54.353805 -39.854088 -0.641352 1.918283 -67.224516 7.125000 0.000000 0.000000 
-4.638803 18.276793 12.045815 174.066608 79.328119 -170.801435 1.769452 -10.111072 -29.890592 -1.371792 4.341411 11.767050 -5.262682 16.343111 3.404991 1.523200 -7.793000 -22.087100 3.470590 12.112498 -14.809168 1.350393 -5.220658 18.265492 -1.485110 5.964217 21.757038 -6.531200 -14.924100 47.078300 4.731575 1.818860 1.158585 0.822420 1.480669 4.840910 -9.821471 8.953579 24.191557 -0.928200 3.168000 10.069500 -72.580943 -0.741240 60.878783 101.122652 -61.670622 -75.630972 0.671066 1.423199 -49.064991 -7.125000 0.000000 0.000000 75.035295 -1.599457 23.496395 -61.484491 54.656082 -40.682405 -0.619451 1.939260 -67.721887 7.125000 0.000000 0.000000 
